#!OML:ASF X:\für Bonn\!DataBase\2005_08_12_Daniel\c3d\Daniel.ASF
:FULLY-SPECIFIED
:DEGREES
2689
root -20.132 16.9706 -34.6603 14.1988 55.6717 371.2
lowerback 16.253 -4.54617 -8.73614
upperback 4.75736 -7.29325 -2.57351
thorax -3.19824 -3.51561 3.46581
lowerneck -3.22883 -4.02914 -11.0966
upperneck 8.38129 -5.14447 5.74107
head 3.46366 -2.65463 3.32771
rclavicle 6.75868e-015 6.36111e-015
rhumerus -58.3566 14.1841 -92.1404
rradius 48.6793
rwrist 5.29774
rhand -29.2389 29.0244
rfingers 7.12502
rthumb -2.58239 -0.939749
lclavicle 6.75868e-015 6.36111e-015
lhumerus -38.5916 -4.22232 95.6575
lradius 100.169
lwrist 6.92583
lhand -8.06283 -6.3541
lfingers 7.12502
lthumb 17.8484 22.8468
rfemur -37.1611 -2.63449 15.2813
rtibia 73.9819
rfoot -21.7876 0.276972
rtoes -15.4141
lfemur -1.8332 -7.56812 -28.783
ltibia 36.3844
lfoot -33.637 -14.1886
ltoes 11.34
2690
root -20.0281 17.0096 -34.5635 13.9996 55.8964 370.642
lowerback 16.13 -4.84958 -8.3393
upperback 4.64914 -7.62192 -2.32751
thorax -3.23042 -3.67954 3.5533
lowerneck -3.25112 -3.93325 -11.0526
upperneck 8.18069 -5.01415 5.73991
head 3.39427 -2.58632 3.32744
rclavicle 4.13472e-014 -1.11319e-014
rhumerus -60.5756 15.4129 -92.3889
rradius 50.8283
rwrist 4.38569
rhand -29.5821 29.6738
rfingers 7.12502
rthumb -2.91392 -0.285999
lclavicle 4.13472e-014 -1.11319e-014
lhumerus -38.751 -3.82562 95.9407
lradius 101.881
lwrist 7.0686
lhand -8.34021 -6.82384
lfingers 7.12502
lthumb 17.5815 22.4012
rfemur -37.5552 -2.77398 16.0165
rtibia 73.2941
rfoot -21.7482 0.692328
rtoes -15.9084
lfemur -1.19273 -7.95083 -28.3878
ltibia 35.5468
lfoot -32.9529 -14.1155
ltoes 11.6039
2691
root -19.9182 17.0528 -34.4607 13.814 56.1147 370.046
lowerback 15.8819 -5.16686 -7.91434
upperback 4.56244 -7.95158 -2.07574
thorax -3.17659 -3.8493 3.61547
lowerneck -3.36753 -3.82037 -10.9815
upperneck 7.99719 -4.85823 5.79462
head 3.34393 -2.50151 3.3395
rclavicle -7.15625e-015 3.33958e-014
rhumerus -62.6692 16.5366 -92.6446
rradius 52.9607
rwrist 3.45948
rhand -29.7854 30.1023
rfingers 7.12502
rthumb -3.11025 0.145251
lclavicle -7.15625e-015 3.33958e-014
lhumerus -38.8471 -3.63119 96.1384
lradius 103.564
lwrist 7.34734
lhand -8.82774 -7.25734
lfingers 7.12502
lthumb 17.1122 22.0091
rfemur -37.9208 -2.91863 16.7804
rtibia 72.4878
rfoot -21.6967 1.06038
rtoes -16.4085
lfemur -0.538578 -8.39479 -27.9949
ltibia 34.6464
lfoot -32.3124 -13.8936
ltoes 11.261
2692
root -19.8007 17.0995 -34.3532 13.6567 56.2998 369.487
lowerback 15.5592 -5.46206 -7.53077
upperback 4.48596 -8.25235 -1.78778
thorax -3.06466 -4.00841 3.72135
lowerneck -3.5477 -3.71629 -11.0098
upperneck 7.8562 -4.70404 5.88323
head 3.32041 -2.41881 3.37656
rclavicle 4.69132e-014 1.19271e-014
rhumerus -64.6802 17.5703 -92.8426
rradius 55.0749
rwrist 2.47529
rhand -29.9575 30.3552
rfingers 7.12502
rthumb -3.27643 0.40062
lclavicle 4.69132e-014 1.19271e-014
lhumerus -38.9547 -3.49317 96.4698
lradius 105.155
lwrist 7.66522
lhand -9.4095 -7.76751
lfingers 7.12502
lthumb 16.5522 21.5465
rfemur -38.2353 -3.13869 17.5315
rtibia 71.5807
rfoot -21.5678 1.37577
rtoes -17.2973
lfemur 0.211098 -8.90153 -27.6714
ltibia 33.6337
lfoot -31.6326 -13.5043
ltoes 10.6761
2693
root -19.6797 17.1503 -34.2457 13.5041 56.5644 368.954
lowerback 15.2885 -5.795 -7.07452
upperback 4.4009 -8.60039 -1.52438
thorax -2.99962 -4.18775 3.77344
lowerneck -3.77177 -3.60519 -10.9551
upperneck 7.73849 -4.54246 5.97943
head 3.30842 -2.32948 3.40234
rclavicle 2.70347e-014 -2.8625e-014
rhumerus -66.7577 18.5269 -93.1181
rradius 57.3017
rwrist 1.54333
rhand -30.0665 30.2736
rfingers 7.12502
rthumb -3.38165 0.320637
lclavicle 2.70347e-014 -2.8625e-014
lhumerus -39.0779 -3.5105 96.7015
lradius 106.73
lwrist 8.10451
lhand -10.0732 -8.27817
lfingers 7.12502
lthumb 15.9132 21.088
rfemur -38.4802 -3.58855 18.2992
rtibia 70.56
rfoot -21.4054 1.70269
rtoes -18.1752
lfemur 0.978377 -9.50493 -27.3645
ltibia 32.6029
lfoot -30.971 -13.0741
ltoes 9.55445
2694
root -19.5529 17.203 -34.1345 13.3669 56.764 368.424
lowerback 14.928 -6.10852 -6.58474
upperback 4.32469 -8.91565 -1.2998
thorax -2.89391 -4.35274 3.74879
lowerneck -3.98483 -3.48506 -10.9276
upperneck 7.62722 -4.37716 6.1819
head 3.29886 -2.2353 3.46589
rclavicle 7.95139e-015 2.3059e-014
rhumerus -68.8517 19.3475 -93.4785
rradius 59.5331
rwrist 0.44977
rhand -30.1558 30.0937
rfingers 7.12502
rthumb -3.46795 0.14214
lclavicle 7.95139e-015 2.3059e-014
lhumerus -39.2712 -3.59397 96.9311
lradius 108.264
lwrist 8.46864
lhand -10.7483 -8.64349
lfingers 7.12502
lthumb 15.2629 20.7734
rfemur -38.6889 -4.00819 19.0502
rtibia 69.4671
rfoot -21.1829 2.0148
rtoes -18.9328
lfemur 1.73922 -9.87652 -27.0389
ltibia 31.5781
lfoot -30.1015 -12.6595
ltoes 8.21489
2695
root -19.4262 17.2505 -34.0233 13.3211 56.9263 368.021
lowerback 14.5898 -6.37518 -6.14544
upperback 4.23117 -9.18364 -1.08966
thorax -2.81946 -4.49221 3.73153
lowerneck -4.2466 -3.41308 -10.9097
upperneck 7.58018 -4.26949 6.35875
head 3.32129 -2.17071 3.51939
rclavicle 2.78299e-014 7.95139e-016
rhumerus -70.7065 19.8199 -93.7048
rradius 61.4389
rwrist -0.375839
rhand -30.2564 29.885
rfingers 7.12502
rthumb -3.56508 -0.0649094
lclavicle 2.78299e-014 7.95139e-016
lhumerus -39.4898 -3.87582 97.1151
lradius 109.73
lwrist 8.99892
lhand -11.3492 -9.05025
lfingers 7.12502
lthumb 14.684 20.4098
rfemur -38.7861 -4.35138 19.656
rtibia 68.3078
rfoot -21.1061 2.5633
rtoes -19.2281
lfemur 2.40514 -10.1207 -26.7513
ltibia 30.6879
lfoot -29.2076 -12.4038
ltoes 6.58287
2696
root -19.2984 17.2957 -33.9124 13.3003 57.0476 367.664
lowerback 14.2535 -6.60733 -5.69835
upperback 4.13078 -9.40961 -0.895253
thorax -2.76292 -4.60973 3.68752
lowerneck -4.41599 -3.34871 -10.9387
upperneck 7.49812 -4.18064 6.57646
head 3.32129 -2.11594 3.59379
rclavicle 3.02153e-014 -1.66979e-014
rhumerus -72.2536 19.9259 -93.7285
rradius 62.9004
rwrist -0.974895
rhand -30.3607 29.8326
rfingers 7.12502
rthumb -3.66576 -0.115586
lclavicle 3.02153e-014 -1.66979e-014
lhumerus -39.6714 -4.20894 97.2764
lradius 110.994
lwrist 9.59317
lhand -11.8058 -9.47224
lfingers 7.12502
lthumb 14.2442 20.0193
rfemur -38.7903 -4.64385 20.2067
rtibia 67.081
rfoot -21.0992 3.28863
rtoes -19.5522
lfemur 2.96965 -10.2689 -26.4637
ltibia 29.9385
lfoot -28.2736 -12.3103
ltoes 5.25719
2697
root -19.1686 17.341 -33.8019 13.3743 57.0926 367.418
lowerback 13.8834 -6.78188 -5.28761
upperback 4.06096 -9.56507 -0.738822
thorax -2.66435 -4.69377 3.60611
lowerneck -4.60678 -3.33272 -10.9152
upperneck 7.35425 -4.15143 6.73197
head 3.30916 -2.09054 3.63719
rclavicle -1.23644e-013 3.89618e-014
rhumerus -73.5378 19.6027 -93.5446
rradius 64.0577
rwrist -1.39326
rhand -30.4921 29.9192
rfingers 7.12502
rthumb -3.79267 -0.0267703
lclavicle -1.23644e-013 3.89618e-014
lhumerus -39.7916 -4.67806 97.3888
lradius 112.15
lwrist 10.251
lhand -12.2872 -9.91768
lfingers 7.12502
lthumb 13.7803 19.6059
rfemur -38.7679 -4.8356 20.6391
rtibia 65.7912
rfoot -21.1435 4.08635
rtoes -19.8747
lfemur 3.38249 -10.3456 -26.2324
ltibia 29.4144
lfoot -27.4009 -12.2931
ltoes 3.87459
2698
root -19.0387 17.3843 -33.6896 13.5378 57.1312 367.293
lowerback 13.5379 -6.94134 -4.90285
upperback 3.97168 -9.71099 -0.617089
thorax -2.60305 -4.77072 3.5058
lowerneck -4.84263 -3.33444 -10.9168
upperneck 7.32943 -4.14324 6.9004
head 3.34301 -2.07609 3.68685
rclavicle 9.97899e-014 1.74931e-014
rhumerus -74.8457 19.1141 -93.3073
rradius 65.1903
rwrist -1.70003
rhand -30.657 30.1025
rfingers 7.12502
rthumb -3.95189 0.159397
lclavicle 9.97899e-014 1.74931e-014
lhumerus -39.9882 -5.12172 97.4481
lradius 113.041
lwrist 10.934
lhand -12.5308 -10.5847
lfingers 7.12502
lthumb 13.5454 18.9547
rfemur -38.702 -4.95485 20.9846
rtibia 64.4679
rfoot -21.1543 4.7724
rtoes -19.9542
lfemur 3.66855 -10.2314 -25.9971
ltibia 29.0721
lfoot -26.4268 -12.4785
ltoes 2.84957
2699
root -18.9097 17.4225 -33.5754 13.7074 57.1066 367.206
lowerback 13.2163 -7.04468 -4.62396
upperback 3.89593 -9.79889 -0.487341
thorax -2.52655 -4.81946 3.46351
lowerneck -5.0769 -3.36986 -10.7567
upperneck 7.28033 -4.17646 6.87083
head 3.36581 -2.0851 3.6467
rclavicle -4.17448e-015 -7.95139e-016
rhumerus -76.1918 18.4716 -92.9344
rradius 66.3567
rwrist -1.9848
rhand -30.7257 30.3395
rfingers 7.12502
rthumb -4.01823 0.397682
lclavicle -4.17448e-015 -7.95139e-016
lhumerus -40.1415 -5.63412 97.5171
lradius 113.848
lwrist 11.6641
lhand -12.6981 -11.2282
lfingers 7.12502
lthumb 13.3842 18.3218
rfemur -38.6028 -5.03743 21.3025
rtibia 63.1599
rfoot -21.1859 5.22776
rtoes -20.251
lfemur 3.86181 -9.86348 -25.7214
ltibia 28.9353
lfoot -25.3915 -12.8218
ltoes 1.91322
2700
root -18.7801 17.4613 -33.4597 13.9882 57.0368 367.272
lowerback 12.9411 -7.12855 -4.47422
upperback 3.80493 -9.88196 -0.363756
thorax -2.47047 -4.86465 3.48949
lowerneck -5.39316 -3.40109 -10.5189
upperneck 7.30758 -4.19832 6.75868
head 3.42076 -2.08906 3.56775
rclavicle 7.15625e-015 -6.36111e-015
rhumerus -77.5345 17.8902 -92.5887
rradius 67.508
rwrist -2.40156
rhand -30.8169 30.5305
rfingers 7.12502
rthumb -4.10633 0.590291
lclavicle 7.15625e-015 -6.36111e-015
lhumerus -40.3805 -6.08188 97.6163
lradius 114.516
lwrist 12.1836
lhand -12.844 -12.0978
lfingers 7.12502
lthumb 13.2436 17.4615
rfemur -38.4812 -5.09079 21.5348
rtibia 61.9065
rfoot -21.2142 5.33413
rtoes -20.2601
lfemur 3.94062 -9.3194 -25.495
ltibia 28.9832
lfoot -24.2403 -13.3477
ltoes 1.07229
2701
root -18.6537 17.4962 -33.3459 14.3233 56.9999 367.395
lowerback 12.7378 -7.20997 -4.29934
upperback 3.68196 -9.96454 -0.258842
thorax -2.4943 -4.90597 3.49598
lowerneck -5.6919 -3.43548 -10.1979
upperneck 7.34411 -4.23183 6.60536
head 3.47386 -2.09867 3.46213
rclavicle -8.05078e-014 3.97569e-015
rhumerus -78.6323 17.1612 -92.14
rradius 68.4288
rwrist -2.88448
rhand -30.6423 30.7055
rfingers 7.12502
rthumb -3.93771 0.762103
lclavicle -8.05078e-014 3.97569e-015
lhumerus -40.7265 -6.50483 97.69
lradius 115.111
lwrist 12.7364
lhand -12.7521 -13.0534
lfingers 7.12502
lthumb 13.3321 16.5001
rfemur -38.3681 -5.22326 21.7747
rtibia 60.7339
rfoot -21.1887 5.29413
rtoes -19.567
lfemur 3.86023 -8.64959 -25.2292
ltibia 29.2289
lfoot -22.9843 -14.0916
ltoes 0.307699
2702
root -18.5271 17.5252 -33.2306 14.6069 56.8917 367.525
lowerback 12.6748 -7.24144 -4.12219
upperback 3.54613 -9.98657 -0.15052
thorax -2.6121 -4.91337 3.51907
lowerneck -6.22909 -3.51374 -9.88899
upperneck 7.50527 -4.30241 6.41094
head 3.60639 -2.12603 3.3399
rclavicle 5.34731e-014 -2.18663e-014
rhumerus -79.507 16.3203 -91.5884
rradius 69.2604
rwrist -3.55339
rhand -30.2662 30.7574
rfingers 7.12502
rthumb -3.57448 0.807649
lclavicle 5.34731e-014 -2.18663e-014
lhumerus -41.213 -7.02595 97.8213
lradius 115.711
lwrist 13.2842
lhand -12.6838 -13.859
lfingers 7.12502
lthumb 13.3979 15.6901
rfemur -38.1695 -5.3787 22.0364
rtibia 59.6462
rfoot -20.9977 5.16248
rtoes -18.3375
lfemur 3.72939 -7.88281 -25.0149
ltibia 29.6472
lfoot -21.679 -14.7915
ltoes -0.710162
2703
root -18.3999 17.5471 -33.117 14.9427 56.7903 367.749
lowerback 12.6906 -7.28587 -4.00191
upperback 3.38668 -10.0356 -0.0284863
thorax -2.7825 -4.93201 3.60282
lowerneck -6.80524 -3.58078 -9.49349
upperneck 7.74456 -4.35772 6.10227
head 3.7632 -2.14874 3.16823
rclavicle -1.37957e-013 2.0276e-014
rhumerus -80.1383 15.5213 -91.0247
rradius 69.9095
rwrist -4.39611
rhand -29.8556 30.5888
rfingers 7.12502
rthumb -3.17797 0.632787
lclavicle -1.37957e-013 2.0276e-014
lhumerus -41.8115 -7.48725 97.9996
lradius 116.241
lwrist 13.7212
lhand -12.6649 -14.7286
lfingers 7.12502
lthumb 13.4162 14.8194
rfemur -37.9609 -5.64875 22.2591
rtibia 58.6783
rfoot -20.6366 5.00357
rtoes -16.5276
lfemur 3.52376 -7.18179 -24.8979
ltibia 30.2648
lfoot -20.518 -15.3488
ltoes -2.427
